<svg width="500" height="500" viewBox="0 0 500 500" fill="none" xmlns="http://www.w3.org/2000/svg">
<circle cx="250" cy="250" r="250" fill="#120E0E"/>
<path d="M175.333 281.973L152.866 207.318H133.437L110.986 281.896L88.8224 207.318H72L98.1451 292.667H120.98L142.952 221.829L164.923 292.667H187.742L213.903 207.318H197.48L175.333 281.973Z" fill="white"/>
<path d="M298.559 231.162C296.608 225.661 293.825 220.979 290.227 217.115C286.63 213.252 282.264 210.254 277.163 208.152C272.062 206.051 266.353 205 260.021 205C253.688 205 247.772 206.082 242.495 208.23C237.218 210.378 232.708 213.437 228.934 217.363C225.161 221.303 222.266 226.016 220.203 231.533C218.141 237.05 217.117 243.154 217.117 249.861C217.117 256.568 218.157 262.78 220.235 268.328C222.314 273.875 225.257 278.62 229.062 282.576C232.868 286.516 237.426 289.576 242.751 291.755C248.076 293.918 253.992 295 260.516 295C265.665 295 270.463 294.305 274.908 292.914C279.354 291.523 283.319 289.514 286.805 286.872C290.291 284.245 293.25 281.03 295.68 277.229C298.111 273.427 299.902 269.147 301.053 264.372H284.839C283.767 267.076 282.472 269.456 280.937 271.511C279.402 273.566 277.643 275.282 275.644 276.657C273.645 278.032 271.438 279.083 268.976 279.779C266.513 280.474 263.843 280.829 260.932 280.829C256.679 280.829 252.857 280.118 249.451 278.697C246.045 277.275 243.15 275.251 240.752 272.608C238.369 269.966 236.53 266.751 235.251 262.996C234.483 260.74 233.972 258.298 233.668 255.718H301.181C301.293 254.59 301.357 253.523 301.405 252.565C301.453 251.607 301.469 250.618 301.469 249.645C301.469 242.83 300.494 236.679 298.543 231.178L298.559 231.162ZM240.544 227.407C242.847 224.749 245.661 222.709 248.955 221.288C252.249 219.866 255.975 219.155 260.117 219.155C264.258 219.155 267.712 219.835 270.831 221.211C273.949 222.586 276.571 224.579 278.698 227.206C280.825 229.833 282.456 233.063 283.559 236.896C284.039 238.534 284.391 240.295 284.647 242.134H233.988C234.291 240.373 234.675 238.657 235.203 237.066C236.45 233.264 238.225 230.05 240.528 227.392L240.544 227.407Z" fill="white"/>
<path d="M426.055 227.29C424.536 221.511 421.641 216.658 417.452 212.872C413.646 209.411 406.93 205.254 396.568 205.006C386.541 204.806 376.787 209.318 369.367 217.23C361.931 209.318 352.161 204.806 342.167 205.006C331.804 205.254 325.088 209.426 321.283 212.872C317.109 216.658 314.215 221.511 312.679 227.306C309.145 240.704 315.206 255.616 330.701 271.626C339.464 280.681 350.738 287.573 363.482 291.808C364.73 292.225 365.961 292.642 367.24 292.998L369.351 293.6L371.462 292.998C372.725 292.642 373.972 292.225 375.22 291.808C387.964 287.589 399.238 280.681 408.001 271.626C423.496 255.616 429.557 240.704 426.023 227.29H426.055ZM397.335 261.952C389.963 269.57 380.321 275.334 369.383 278.765C358.445 275.334 348.803 269.57 341.431 261.936C326.655 246.669 325.376 236.562 326.911 230.767C327.215 229.608 328.159 226.054 331.341 223.18C335.642 219.27 341.175 219.162 342.55 219.146C349.826 219.007 353.616 220.243 359.693 225.096C363.386 228.047 367.688 234.028 369.399 236.006C371.142 234.028 375.492 228.063 379.217 225.096C385.502 220.104 389.132 219.023 396.232 219.146C397.575 219.177 403.124 219.27 407.441 223.18C410.624 226.069 411.551 229.608 411.871 230.767C413.39 236.562 412.111 246.669 397.351 261.936L397.335 261.952Z" fill="white"/>
</svg>
